Screens : http://img691.imageshack.us/img691/8604/sexwivesvideotapesflvth.jpg



General
Complete name       	                : Sex Wives & videotapes.flv
Format                           	: Flash Video
File size                         	: 326 MiB
Duration                        	: 2h 10mn
Overall bit rate              	        : 348 Kbps

Video
Format                           	: VP6
Duration                        	: 2h 10mn
Bit rate                         	: 384 Kbps
Width                            	: 338 pixels
Height                           	: 252 pixels
Display aspect ratio             	: 4:3
Frame rate                       	: 24.000 fps
Bits/(Pixel*Frame)                      : 0.188
Stream size                      	: 359 MiB

Audio
Format                           	: MPEG Audio
Format version                   	: Version 2.5
Format profile                   	: Layer 3
Format_Settings_Mode 	                : Joint stereo
ModeExtension    		        : Intensity Stereo + MS Stereo
Duration                         	: 2h 10mn
Bit rate mode           	        : Constant
Bit rate                         	: 24.0 Kbps
Channel(s)               	        : 2 channels
Sampling rate          	                : 11.025 KHz
Stream size                      	: 22.5 MiB (7%)


Title:   			: Sex, Wives and Videotape
Studio:   			: Metro Interactive
Director:   		: Viv Thomas
Run Length:   		: 130:48
Starring:   		: Katie, Angie Scott, Doctor Love, Ian Tate, Mia Stone, Dixie, Clark


From world famous director Viv Thomas, four stunningly beautiful women, including natural blonde beauties Mia Stone and Angie Scott pleasuring themselves and their lucky male voyeurs. But beware: Hell hath no fury like a woman scorned! 7 superb hardcore fuck scenes!